<mxfile host="app.diagrams.net" modified="2024-05-22T16:28:42.198Z" agent="Mozilla/5.0 (Windows NT 10.0; Win64; x64) AppleWebKit/537.36 (KHTML, like Gecko) Chrome/124.0.0.0 Safari/537.36" etag="W_QWqIDTEf0g5CNjahmW" version="24.4.6" type="device">
  <diagram name="Page-1" id="YG0JrjlHHLavT-JwWqOR">
    <mxGraphModel dx="2338" dy="1871" grid="1" gridSize="10" guides="1" tooltips="1" connect="1" arrows="1" fold="1" page="1" pageScale="1" pageWidth="850" pageHeight="1100" math="0" shadow="0">
      <root>
        <mxCell id="0" />
        <mxCell id="1" parent="0" />
        <mxCell id="XH1Az4GU9wyU_TXXHhoo-4" style="edgeStyle=orthogonalEdgeStyle;rounded=0;orthogonalLoop=1;jettySize=auto;html=1;" parent="1" source="XH1Az4GU9wyU_TXXHhoo-1" edge="1">
          <mxGeometry relative="1" as="geometry">
            <mxPoint x="165" y="230" as="targetPoint" />
          </mxGeometry>
        </mxCell>
        <mxCell id="XH1Az4GU9wyU_TXXHhoo-9" value="Login Request" style="edgeStyle=orthogonalEdgeStyle;rounded=0;orthogonalLoop=1;jettySize=auto;html=1;entryX=0;entryY=0.5;entryDx=0;entryDy=0;" parent="1" source="XH1Az4GU9wyU_TXXHhoo-1" target="XH1Az4GU9wyU_TXXHhoo-8" edge="1">
          <mxGeometry relative="1" as="geometry">
            <Array as="points">
              <mxPoint x="330" y="130" />
              <mxPoint x="330" y="190" />
              <mxPoint x="460" y="190" />
              <mxPoint x="460" y="355" />
            </Array>
          </mxGeometry>
        </mxCell>
        <mxCell id="IWKBvy3yQ3PRfHO8mV6G-24" style="edgeStyle=orthogonalEdgeStyle;rounded=0;orthogonalLoop=1;jettySize=auto;html=1;" parent="1" source="XH1Az4GU9wyU_TXXHhoo-1" target="IWKBvy3yQ3PRfHO8mV6G-23" edge="1">
          <mxGeometry relative="1" as="geometry" />
        </mxCell>
        <mxCell id="XH1Az4GU9wyU_TXXHhoo-1" value="User" style="rounded=0;whiteSpace=wrap;html=1;fontStyle=1" parent="1" vertex="1">
          <mxGeometry x="70" y="90" width="110" height="50" as="geometry" />
        </mxCell>
        <mxCell id="XH1Az4GU9wyU_TXXHhoo-2" value="&lt;b&gt;1.0&lt;/b&gt;&lt;div&gt;Create account&lt;/div&gt;" style="ellipse;whiteSpace=wrap;html=1;aspect=fixed;" parent="1" vertex="1">
          <mxGeometry x="125" y="230" width="80" height="80" as="geometry" />
        </mxCell>
        <mxCell id="IWKBvy3yQ3PRfHO8mV6G-3" value="Login response" style="edgeStyle=orthogonalEdgeStyle;rounded=0;orthogonalLoop=1;jettySize=auto;html=1;" parent="1" source="XH1Az4GU9wyU_TXXHhoo-6" target="XH1Az4GU9wyU_TXXHhoo-8" edge="1">
          <mxGeometry relative="1" as="geometry">
            <Array as="points">
              <mxPoint x="470" y="435" />
              <mxPoint x="470" y="435" />
            </Array>
          </mxGeometry>
        </mxCell>
        <mxCell id="XH1Az4GU9wyU_TXXHhoo-6" value="D1&lt;span style=&quot;white-space: pre;&quot;&gt;&#x9;&lt;/span&gt;registerd_users" style="html=1;dashed=0;whiteSpace=wrap;shape=mxgraph.dfd.dataStoreID;align=left;spacingLeft=3;points=[[0,0],[0.5,0],[1,0],[0,0.5],[1,0.5],[0,1],[0.5,1],[1,1]];" parent="1" vertex="1">
          <mxGeometry x="102.5" y="420" width="125" height="30" as="geometry" />
        </mxCell>
        <mxCell id="XH1Az4GU9wyU_TXXHhoo-7" value="Storing Data" style="edgeStyle=orthogonalEdgeStyle;rounded=0;orthogonalLoop=1;jettySize=auto;html=1;" parent="1" source="XH1Az4GU9wyU_TXXHhoo-2" target="XH1Az4GU9wyU_TXXHhoo-6" edge="1">
          <mxGeometry relative="1" as="geometry">
            <mxPoint x="165" y="390" as="targetPoint" />
          </mxGeometry>
        </mxCell>
        <mxCell id="XH1Az4GU9wyU_TXXHhoo-10" value="Login response" style="edgeStyle=orthogonalEdgeStyle;rounded=0;orthogonalLoop=1;jettySize=auto;html=1;entryX=1;entryY=0.25;entryDx=0;entryDy=0;" parent="1" source="XH1Az4GU9wyU_TXXHhoo-8" target="XH1Az4GU9wyU_TXXHhoo-1" edge="1">
          <mxGeometry relative="1" as="geometry">
            <Array as="points">
              <mxPoint x="490" y="320" />
              <mxPoint x="490" y="103" />
            </Array>
          </mxGeometry>
        </mxCell>
        <mxCell id="IWKBvy3yQ3PRfHO8mV6G-2" value="Login request" style="edgeStyle=orthogonalEdgeStyle;rounded=0;orthogonalLoop=1;jettySize=auto;html=1;entryX=0.5;entryY=1;entryDx=0;entryDy=0;" parent="1" source="XH1Az4GU9wyU_TXXHhoo-8" target="XH1Az4GU9wyU_TXXHhoo-6" edge="1">
          <mxGeometry relative="1" as="geometry">
            <Array as="points">
              <mxPoint x="580" y="480" />
              <mxPoint x="165" y="480" />
            </Array>
          </mxGeometry>
        </mxCell>
        <mxCell id="IWKBvy3yQ3PRfHO8mV6G-7" value="Login response" style="edgeStyle=orthogonalEdgeStyle;rounded=0;orthogonalLoop=1;jettySize=auto;html=1;entryX=0.5;entryY=1;entryDx=0;entryDy=0;" parent="1" source="XH1Az4GU9wyU_TXXHhoo-8" target="XH1Az4GU9wyU_TXXHhoo-11" edge="1">
          <mxGeometry relative="1" as="geometry">
            <Array as="points">
              <mxPoint x="1295" y="310" />
            </Array>
          </mxGeometry>
        </mxCell>
        <mxCell id="IWKBvy3yQ3PRfHO8mV6G-8" value="Login request" style="edgeStyle=orthogonalEdgeStyle;rounded=0;orthogonalLoop=1;jettySize=auto;html=1;" parent="1" source="XH1Az4GU9wyU_TXXHhoo-8" target="XH1Az4GU9wyU_TXXHhoo-14" edge="1">
          <mxGeometry relative="1" as="geometry">
            <Array as="points">
              <mxPoint x="840" y="360" />
              <mxPoint x="840" y="360" />
            </Array>
          </mxGeometry>
        </mxCell>
        <mxCell id="XH1Az4GU9wyU_TXXHhoo-8" value="&lt;div&gt;&lt;b&gt;2.0&lt;/b&gt;&lt;/div&gt;&lt;b&gt;Authentication&lt;/b&gt;" style="shape=ellipse;html=1;dashed=0;whiteSpace=wrap;aspect=fixed;perimeter=ellipsePerimeter;" parent="1" vertex="1">
          <mxGeometry x="530" y="250" width="210" height="210" as="geometry" />
        </mxCell>
        <mxCell id="IWKBvy3yQ3PRfHO8mV6G-37" style="edgeStyle=orthogonalEdgeStyle;rounded=0;orthogonalLoop=1;jettySize=auto;html=1;entryX=0.5;entryY=0;entryDx=0;entryDy=0;" parent="1" source="XH1Az4GU9wyU_TXXHhoo-11" target="IWKBvy3yQ3PRfHO8mV6G-36" edge="1">
          <mxGeometry relative="1" as="geometry">
            <Array as="points">
              <mxPoint x="1320" y="420" />
            </Array>
          </mxGeometry>
        </mxCell>
        <mxCell id="IWKBvy3yQ3PRfHO8mV6G-39" value="Tracking user order" style="edgeStyle=orthogonalEdgeStyle;rounded=0;orthogonalLoop=1;jettySize=auto;html=1;entryX=1;entryY=0.5;entryDx=0;entryDy=0;" parent="1" source="XH1Az4GU9wyU_TXXHhoo-11" target="IWKBvy3yQ3PRfHO8mV6G-38" edge="1">
          <mxGeometry relative="1" as="geometry">
            <Array as="points">
              <mxPoint x="1310" y="-35" />
            </Array>
          </mxGeometry>
        </mxCell>
        <mxCell id="XH1Az4GU9wyU_TXXHhoo-11" value="Admin" style="rounded=0;whiteSpace=wrap;html=1;fontStyle=1" parent="1" vertex="1">
          <mxGeometry x="1240" y="230" width="110" height="50" as="geometry" />
        </mxCell>
        <mxCell id="XH1Az4GU9wyU_TXXHhoo-12" value="Login request" style="edgeStyle=orthogonalEdgeStyle;rounded=0;orthogonalLoop=1;jettySize=auto;html=1;" parent="1" source="XH1Az4GU9wyU_TXXHhoo-11" target="XH1Az4GU9wyU_TXXHhoo-8" edge="1">
          <mxGeometry relative="1" as="geometry">
            <Array as="points">
              <mxPoint x="835" y="175" />
              <mxPoint x="835" y="330" />
            </Array>
          </mxGeometry>
        </mxCell>
        <mxCell id="XH1Az4GU9wyU_TXXHhoo-15" value="Login response" style="edgeStyle=orthogonalEdgeStyle;rounded=0;orthogonalLoop=1;jettySize=auto;html=1;entryX=1;entryY=1;entryDx=0;entryDy=0;" parent="1" source="XH1Az4GU9wyU_TXXHhoo-14" target="XH1Az4GU9wyU_TXXHhoo-8" edge="1">
          <mxGeometry relative="1" as="geometry">
            <Array as="points">
              <mxPoint x="1050" y="429" />
              <mxPoint x="1050" y="429" />
            </Array>
          </mxGeometry>
        </mxCell>
        <mxCell id="XH1Az4GU9wyU_TXXHhoo-14" value="D2&lt;span style=&quot;white-space: pre;&quot;&gt;&#x9;&lt;/span&gt;admin_login" style="html=1;dashed=0;whiteSpace=wrap;shape=mxgraph.dfd.dataStoreID;align=left;spacingLeft=3;points=[[0,0],[0.5,0],[1,0],[0,0.5],[1,0.5],[0,1],[0.5,1],[1,1]];" parent="1" vertex="1">
          <mxGeometry x="1130" y="330" width="100" height="30" as="geometry" />
        </mxCell>
        <mxCell id="IWKBvy3yQ3PRfHO8mV6G-10" style="edgeStyle=orthogonalEdgeStyle;rounded=0;orthogonalLoop=1;jettySize=auto;html=1;entryX=0.5;entryY=0;entryDx=0;entryDy=0;" parent="1" source="XH1Az4GU9wyU_TXXHhoo-16" target="IWKBvy3yQ3PRfHO8mV6G-9" edge="1">
          <mxGeometry relative="1" as="geometry" />
        </mxCell>
        <mxCell id="IWKBvy3yQ3PRfHO8mV6G-12" value="Login request" style="edgeStyle=orthogonalEdgeStyle;rounded=0;orthogonalLoop=1;jettySize=auto;html=1;" parent="1" target="XH1Az4GU9wyU_TXXHhoo-8" edge="1">
          <mxGeometry relative="1" as="geometry">
            <mxPoint x="600" y="620" as="sourcePoint" />
            <Array as="points">
              <mxPoint x="600" y="630" />
              <mxPoint x="601" y="630" />
            </Array>
          </mxGeometry>
        </mxCell>
        <mxCell id="IWKBvy3yQ3PRfHO8mV6G-19" style="edgeStyle=orthogonalEdgeStyle;rounded=0;orthogonalLoop=1;jettySize=auto;html=1;" parent="1" source="XH1Az4GU9wyU_TXXHhoo-16" target="IWKBvy3yQ3PRfHO8mV6G-18" edge="1">
          <mxGeometry relative="1" as="geometry" />
        </mxCell>
        <mxCell id="XH1Az4GU9wyU_TXXHhoo-16" value="Vendor" style="rounded=0;whiteSpace=wrap;html=1;fontStyle=1" parent="1" vertex="1">
          <mxGeometry x="580" y="630" width="110" height="50" as="geometry" />
        </mxCell>
        <mxCell id="IWKBvy3yQ3PRfHO8mV6G-16" value="Login response" style="edgeStyle=orthogonalEdgeStyle;rounded=0;orthogonalLoop=1;jettySize=auto;html=1;" parent="1" source="XH1Az4GU9wyU_TXXHhoo-19" target="XH1Az4GU9wyU_TXXHhoo-8" edge="1">
          <mxGeometry relative="1" as="geometry">
            <Array as="points">
              <mxPoint x="883" y="580" />
              <mxPoint x="650" y="580" />
            </Array>
          </mxGeometry>
        </mxCell>
        <mxCell id="XH1Az4GU9wyU_TXXHhoo-19" value="D3&lt;span style=&quot;white-space: pre;&quot;&gt;&#x9;&lt;/span&gt;registerd_vendor" style="html=1;dashed=0;whiteSpace=wrap;shape=mxgraph.dfd.dataStoreID;align=left;spacingLeft=3;points=[[0,0],[0.5,0],[1,0],[0,0.5],[1,0.5],[0,1],[0.5,1],[1,1]];" parent="1" vertex="1">
          <mxGeometry x="820" y="830" width="125" height="30" as="geometry" />
        </mxCell>
        <mxCell id="IWKBvy3yQ3PRfHO8mV6G-15" style="edgeStyle=orthogonalEdgeStyle;rounded=0;orthogonalLoop=1;jettySize=auto;html=1;" parent="1" source="IWKBvy3yQ3PRfHO8mV6G-9" target="XH1Az4GU9wyU_TXXHhoo-19" edge="1">
          <mxGeometry relative="1" as="geometry" />
        </mxCell>
        <mxCell id="IWKBvy3yQ3PRfHO8mV6G-9" value="&lt;b&gt;3.0&lt;/b&gt;&lt;div&gt;Create account&lt;/div&gt;" style="ellipse;whiteSpace=wrap;html=1;aspect=fixed;" parent="1" vertex="1">
          <mxGeometry x="590" y="780" width="90" height="90" as="geometry" />
        </mxCell>
        <mxCell id="IWKBvy3yQ3PRfHO8mV6G-13" value="Login response" style="edgeStyle=orthogonalEdgeStyle;rounded=0;orthogonalLoop=1;jettySize=auto;html=1;" parent="1" source="XH1Az4GU9wyU_TXXHhoo-8" target="XH1Az4GU9wyU_TXXHhoo-16" edge="1">
          <mxGeometry relative="1" as="geometry">
            <Array as="points">
              <mxPoint x="690" y="542" />
              <mxPoint x="680" y="542" />
            </Array>
          </mxGeometry>
        </mxCell>
        <mxCell id="IWKBvy3yQ3PRfHO8mV6G-17" value="Login request" style="edgeStyle=orthogonalEdgeStyle;rounded=0;orthogonalLoop=1;jettySize=auto;html=1;entryX=0.786;entryY=0.042;entryDx=0;entryDy=0;entryPerimeter=0;" parent="1" source="XH1Az4GU9wyU_TXXHhoo-8" target="XH1Az4GU9wyU_TXXHhoo-19" edge="1">
          <mxGeometry relative="1" as="geometry">
            <Array as="points">
              <mxPoint x="635" y="490" />
              <mxPoint x="918" y="490" />
            </Array>
          </mxGeometry>
        </mxCell>
        <mxCell id="IWKBvy3yQ3PRfHO8mV6G-21" value="storing procucts" style="edgeStyle=orthogonalEdgeStyle;rounded=0;orthogonalLoop=1;jettySize=auto;html=1;entryX=1;entryY=0.5;entryDx=0;entryDy=0;" parent="1" source="IWKBvy3yQ3PRfHO8mV6G-18" target="IWKBvy3yQ3PRfHO8mV6G-20" edge="1">
          <mxGeometry relative="1" as="geometry" />
        </mxCell>
        <mxCell id="IWKBvy3yQ3PRfHO8mV6G-18" value="&lt;b&gt;4.0&lt;/b&gt;&lt;div&gt;Product&lt;/div&gt;&lt;div&gt;management&lt;/div&gt;" style="ellipse;whiteSpace=wrap;html=1;aspect=fixed;" parent="1" vertex="1">
          <mxGeometry x="330" y="765" width="120" height="120" as="geometry" />
        </mxCell>
        <mxCell id="IWKBvy3yQ3PRfHO8mV6G-35" value="Fetching products" style="edgeStyle=orthogonalEdgeStyle;rounded=0;orthogonalLoop=1;jettySize=auto;html=1;" parent="1" source="IWKBvy3yQ3PRfHO8mV6G-20" target="IWKBvy3yQ3PRfHO8mV6G-23" edge="1">
          <mxGeometry relative="1" as="geometry" />
        </mxCell>
        <mxCell id="IWKBvy3yQ3PRfHO8mV6G-20" value="D4&lt;span style=&quot;white-space: pre;&quot;&gt;&#x9;&lt;/span&gt;products" style="html=1;dashed=0;whiteSpace=wrap;shape=mxgraph.dfd.dataStoreID;align=left;spacingLeft=3;points=[[0,0],[0.5,0],[1,0],[0,0.5],[1,0.5],[0,1],[0.5,1],[1,1]];" parent="1" vertex="1">
          <mxGeometry x="-117.5" y="810" width="125" height="30" as="geometry" />
        </mxCell>
        <mxCell id="IWKBvy3yQ3PRfHO8mV6G-26" style="edgeStyle=orthogonalEdgeStyle;rounded=0;orthogonalLoop=1;jettySize=auto;html=1;" parent="1" source="IWKBvy3yQ3PRfHO8mV6G-23" target="IWKBvy3yQ3PRfHO8mV6G-25" edge="1">
          <mxGeometry relative="1" as="geometry" />
        </mxCell>
        <mxCell id="IWKBvy3yQ3PRfHO8mV6G-27" value="selected products" style="edgeLabel;html=1;align=center;verticalAlign=middle;resizable=0;points=[];" parent="IWKBvy3yQ3PRfHO8mV6G-26" vertex="1" connectable="0">
          <mxGeometry x="0.0749" y="4" relative="1" as="geometry">
            <mxPoint as="offset" />
          </mxGeometry>
        </mxCell>
        <mxCell id="IWKBvy3yQ3PRfHO8mV6G-23" value="&lt;b&gt;5.0&lt;/b&gt;&lt;div&gt;Cart&amp;nbsp;&lt;/div&gt;&lt;div&gt;management&lt;/div&gt;" style="ellipse;whiteSpace=wrap;html=1;aspect=fixed;" parent="1" vertex="1">
          <mxGeometry x="-110" y="220" width="110" height="110" as="geometry" />
        </mxCell>
        <mxCell id="IWKBvy3yQ3PRfHO8mV6G-29" value="Check out products" style="edgeStyle=orthogonalEdgeStyle;rounded=0;orthogonalLoop=1;jettySize=auto;html=1;" parent="1" source="IWKBvy3yQ3PRfHO8mV6G-25" target="t0dhHFUHabeF_CavtLA2-1" edge="1">
          <mxGeometry relative="1" as="geometry" />
        </mxCell>
        <mxCell id="IWKBvy3yQ3PRfHO8mV6G-25" value="D5&lt;span style=&quot;white-space: pre;&quot;&gt;&#x9;&lt;/span&gt;cart" style="html=1;dashed=0;whiteSpace=wrap;shape=mxgraph.dfd.dataStoreID;align=left;spacingLeft=3;points=[[0,0],[0.5,0],[1,0],[0,0.5],[1,0.5],[0,1],[0.5,1],[1,1]];" parent="1" vertex="1">
          <mxGeometry x="-407.5" y="260" width="125" height="30" as="geometry" />
        </mxCell>
        <mxCell id="IWKBvy3yQ3PRfHO8mV6G-32" value="Billing information&amp;nbsp;" style="edgeStyle=orthogonalEdgeStyle;rounded=0;orthogonalLoop=1;jettySize=auto;html=1;" parent="1" source="IWKBvy3yQ3PRfHO8mV6G-28" target="IWKBvy3yQ3PRfHO8mV6G-30" edge="1">
          <mxGeometry relative="1" as="geometry" />
        </mxCell>
        <mxCell id="IWKBvy3yQ3PRfHO8mV6G-28" value="&lt;b&gt;7.0&lt;/b&gt;&lt;div&gt;Billing&lt;/div&gt;&lt;div&gt;Details&lt;/div&gt;" style="ellipse;whiteSpace=wrap;html=1;aspect=fixed;" parent="1" vertex="1">
          <mxGeometry x="-400" y="630" width="110" height="110" as="geometry" />
        </mxCell>
        <mxCell id="IWKBvy3yQ3PRfHO8mV6G-30" value="D7&lt;span style=&quot;white-space: pre;&quot;&gt;&#x9;&lt;/span&gt;billing_details" style="html=1;dashed=0;whiteSpace=wrap;shape=mxgraph.dfd.dataStoreID;align=left;spacingLeft=3;points=[[0,0],[0.5,0],[1,0],[0,0.5],[1,0.5],[0,1],[0.5,1],[1,1]];" parent="1" vertex="1">
          <mxGeometry x="-407.5" y="810" width="125" height="30" as="geometry" />
        </mxCell>
        <mxCell id="IWKBvy3yQ3PRfHO8mV6G-44" value="Track order" style="edgeStyle=orthogonalEdgeStyle;rounded=0;orthogonalLoop=1;jettySize=auto;html=1;entryX=1;entryY=0.5;entryDx=0;entryDy=0;" parent="1" source="IWKBvy3yQ3PRfHO8mV6G-36" target="XH1Az4GU9wyU_TXXHhoo-11" edge="1">
          <mxGeometry relative="1" as="geometry">
            <Array as="points">
              <mxPoint x="1420" y="485" />
              <mxPoint x="1420" y="255" />
            </Array>
          </mxGeometry>
        </mxCell>
        <mxCell id="IWKBvy3yQ3PRfHO8mV6G-36" value="&lt;b&gt;3.0&lt;/b&gt;&lt;div&gt;Manage order&lt;/div&gt;" style="ellipse;whiteSpace=wrap;html=1;aspect=fixed;" parent="1" vertex="1">
          <mxGeometry x="1275" y="440" width="90" height="90" as="geometry" />
        </mxCell>
        <mxCell id="IWKBvy3yQ3PRfHO8mV6G-40" style="edgeStyle=orthogonalEdgeStyle;rounded=0;orthogonalLoop=1;jettySize=auto;html=1;" parent="1" source="IWKBvy3yQ3PRfHO8mV6G-38" target="XH1Az4GU9wyU_TXXHhoo-1" edge="1">
          <mxGeometry relative="1" as="geometry" />
        </mxCell>
        <mxCell id="IWKBvy3yQ3PRfHO8mV6G-38" value="&lt;b&gt;3.0&lt;/b&gt;&lt;div&gt;Track order&lt;/div&gt;" style="ellipse;whiteSpace=wrap;html=1;aspect=fixed;" parent="1" vertex="1">
          <mxGeometry x="590" y="-80" width="90" height="90" as="geometry" />
        </mxCell>
        <mxCell id="IWKBvy3yQ3PRfHO8mV6G-42" value="Ordered products details" style="edgeStyle=orthogonalEdgeStyle;rounded=0;orthogonalLoop=1;jettySize=auto;html=1;entryX=0.601;entryY=1.033;entryDx=0;entryDy=0;entryPerimeter=0;" parent="1" source="IWKBvy3yQ3PRfHO8mV6G-30" target="IWKBvy3yQ3PRfHO8mV6G-36" edge="1">
          <mxGeometry relative="1" as="geometry">
            <Array as="points">
              <mxPoint x="-345" y="930" />
              <mxPoint x="1329" y="930" />
            </Array>
          </mxGeometry>
        </mxCell>
        <mxCell id="t0dhHFUHabeF_CavtLA2-3" style="edgeStyle=orthogonalEdgeStyle;rounded=0;orthogonalLoop=1;jettySize=auto;html=1;" edge="1" parent="1" source="ENX4_Z89iwcRNsceINwk-1" target="IWKBvy3yQ3PRfHO8mV6G-28">
          <mxGeometry relative="1" as="geometry" />
        </mxCell>
        <mxCell id="ENX4_Z89iwcRNsceINwk-1" value="D6&lt;span style=&quot;white-space: pre;&quot;&gt;&#x9;&lt;/span&gt;orders" style="html=1;dashed=0;whiteSpace=wrap;shape=mxgraph.dfd.dataStoreID;align=left;spacingLeft=3;points=[[0,0],[0.5,0],[1,0],[0,0.5],[1,0.5],[0,1],[0.5,1],[1,1]];" parent="1" vertex="1">
          <mxGeometry x="-407.5" y="550" width="125" height="30" as="geometry" />
        </mxCell>
        <mxCell id="t0dhHFUHabeF_CavtLA2-2" value="Getting quantity" style="edgeStyle=orthogonalEdgeStyle;rounded=0;orthogonalLoop=1;jettySize=auto;html=1;" edge="1" parent="1" source="t0dhHFUHabeF_CavtLA2-1" target="ENX4_Z89iwcRNsceINwk-1">
          <mxGeometry relative="1" as="geometry" />
        </mxCell>
        <mxCell id="t0dhHFUHabeF_CavtLA2-1" value="&lt;b&gt;6.0&lt;/b&gt;&lt;div&gt;Order&lt;/div&gt;&lt;div&gt;Processing&lt;/div&gt;" style="ellipse;whiteSpace=wrap;html=1;aspect=fixed;" vertex="1" parent="1">
          <mxGeometry x="-400" y="370" width="110" height="110" as="geometry" />
        </mxCell>
      </root>
    </mxGraphModel>
  </diagram>
</mxfile>
